<?xml version="1.0" encoding="UTF-8"?>
<svg id="Layer_1" data-name="Layer 1" xmlns="http://www.w3.org/2000/svg" version="1.1" xmlns:xlink="http://www.w3.org/1999/xlink" viewBox="0 0 31.9 32">
  <defs>
    <style>
      .cls-1 {
        fill: url(#linear-gradient-12);
      }

      .cls-1, .cls-2, .cls-3, .cls-4, .cls-5, .cls-6, .cls-7, .cls-8, .cls-9, .cls-10, .cls-11, .cls-12, .cls-13, .cls-14, .cls-15, .cls-16, .cls-17, .cls-18, .cls-19, .cls-20, .cls-21, .cls-22, .cls-23, .cls-24, .cls-25, .cls-26, .cls-27, .cls-28, .cls-29, .cls-30, .cls-31, .cls-32 {
        stroke-width: 0px;
      }

      .cls-2 {
        fill: url(#linear-gradient-17);
      }

      .cls-3 {
        fill: url(#linear-gradient-19);
      }

      .cls-4 {
        fill: url(#linear-gradient);
      }

      .cls-5 {
        fill: url(#linear-gradient-21);
      }

      .cls-6 {
        fill: url(#linear-gradient-6);
      }

      .cls-7 {
        fill: url(#linear-gradient-15);
      }

      .cls-8 {
        fill: url(#linear-gradient-11);
      }

      .cls-9 {
        fill: url(#linear-gradient-5);
      }

      .cls-10 {
        fill: url(#linear-gradient-31);
      }

      .cls-11 {
        fill: url(#linear-gradient-13);
      }

      .cls-12 {
        fill: url(#linear-gradient-23);
      }

      .cls-13 {
        fill: url(#linear-gradient-25);
      }

      .cls-14 {
        fill: url(#linear-gradient-16);
      }

      .cls-15 {
        fill: url(#linear-gradient-22);
      }

      .cls-16 {
        fill: url(#linear-gradient-32);
      }

      .cls-17 {
        fill: url(#linear-gradient-20);
      }

      .cls-18 {
        fill: url(#linear-gradient-14);
      }

      .cls-19 {
        fill: url(#linear-gradient-2);
      }

      .cls-20 {
        fill: url(#linear-gradient-7);
      }

      .cls-21 {
        fill: url(#linear-gradient-3);
      }

      .cls-22 {
        fill: url(#linear-gradient-9);
      }

      .cls-23 {
        fill: url(#linear-gradient-27);
      }

      .cls-24 {
        fill: url(#linear-gradient-8);
      }

      .cls-25 {
        fill: url(#linear-gradient-24);
      }

      .cls-26 {
        fill: url(#linear-gradient-26);
      }

      .cls-27 {
        fill: url(#linear-gradient-18);
      }

      .cls-28 {
        fill: url(#linear-gradient-30);
      }

      .cls-29 {
        fill: url(#linear-gradient-29);
      }

      .cls-30 {
        fill: url(#linear-gradient-28);
      }

      .cls-31 {
        fill: url(#linear-gradient-10);
      }

      .cls-32 {
        fill: url(#linear-gradient-4);
      }
    </style>
    <linearGradient id="linear-gradient" x1="-1817" y1="1387.9" x2="-1814.9" y2="1387.9" gradientTransform="translate(2292.9 316.3) rotate(-30) scale(1 -1)" gradientUnits="userSpaceOnUse">
      <stop offset="0" stop-color="#81b823"/>
      <stop offset="1" stop-color="#017b4e"/>
    </linearGradient>
    <linearGradient id="linear-gradient-2" x1="-1815.5" y1="1387.9" x2="-1816.3" y2="1387.8" gradientTransform="translate(2292.9 316.3) rotate(-30) scale(1 -1)" gradientUnits="userSpaceOnUse">
      <stop offset="0" stop-color="#017b4e" stop-opacity="0"/>
      <stop offset="1" stop-color="#026841"/>
    </linearGradient>
    <linearGradient id="linear-gradient-3" x1="1040.1" y1="269" x2="1047.8" y2="269" gradientTransform="translate(-1058.7 4.8) rotate(15) scale(1 -1)" xlink:href="#linear-gradient"/>
    <linearGradient id="linear-gradient-4" x1="1043.9" y1="270.3" x2="1043.9" y2="260.4" gradientTransform="translate(-1058.7 4.8) rotate(15) scale(1 -1)" xlink:href="#linear-gradient-2"/>
    <linearGradient id="linear-gradient-5" x1="1043.9" y1="273.2" x2="1043.9" y2="263" gradientTransform="translate(-1058.7 4.8) rotate(15) scale(1 -1)" xlink:href="#linear-gradient-2"/>
    <linearGradient id="linear-gradient-6" x1="1043.9" y1="275.8" x2="1043.9" y2="268.1" gradientTransform="translate(-1058.7 4.8) rotate(15) scale(1 -1)" xlink:href="#linear-gradient-2"/>
    <linearGradient id="linear-gradient-7" x1="1045.7" y1="269.2" x2="1042.7" y2="268.8" gradientTransform="translate(-1058.7 4.8) rotate(15) scale(1 -1)" xlink:href="#linear-gradient-2"/>
    <linearGradient id="linear-gradient-8" x1="22.5" y1="18.1" x2="20.4" y2="16.5" gradientTransform="translate(1.1 33.6) scale(1 -1)" gradientUnits="userSpaceOnUse">
      <stop offset="0" stop-color="#01525a" stop-opacity="0"/>
      <stop offset="1" stop-color="#01525a"/>
    </linearGradient>
    <linearGradient id="linear-gradient-9" x1="2.8" y1="23.7" x2="23.7" y2="13" gradientTransform="translate(1.1 33.6) scale(1 -1)" gradientUnits="userSpaceOnUse">
      <stop offset="0" stop-color="#5a5a5a"/>
      <stop offset="1" stop-color="#444"/>
    </linearGradient>
    <linearGradient id="linear-gradient-10" x1="-2.1" y1="31.3" x2="27" y2="7.3" gradientTransform="translate(1.1 33.6) scale(1 -1)" gradientUnits="userSpaceOnUse">
      <stop offset="0" stop-color="#433f43" stop-opacity="0"/>
      <stop offset="1" stop-color="#1a1a1a"/>
    </linearGradient>
    <linearGradient id="linear-gradient-11" x1="9.8" y1="22.9" x2="7.3" y2="22.9" xlink:href="#linear-gradient-10"/>
    <linearGradient id="linear-gradient-12" x1="10.1" y1="7.9" x2="7.3" y2="9.5" xlink:href="#linear-gradient-10"/>
    <linearGradient id="linear-gradient-13" x1="14.1" y1="27.5" x2="14.1" y2="29.7" xlink:href="#linear-gradient-10"/>
    <linearGradient id="linear-gradient-14" x1="14.1" y1="7.2" x2="14.1" y2="3.7" xlink:href="#linear-gradient-10"/>
    <linearGradient id="linear-gradient-15" x1="19.5" y1="13.5" x2="23.7" y2="13.5" xlink:href="#linear-gradient-10"/>
    <linearGradient id="linear-gradient-16" x1="10.9" y1="24.1" x2="10" y2="27.3" gradientTransform="translate(1.1 33.6) scale(1 -1)" gradientUnits="userSpaceOnUse">
      <stop offset="0" stop-color="#433f43" stop-opacity="0"/>
      <stop offset="1" stop-color="#000"/>
    </linearGradient>
    <linearGradient id="linear-gradient-17" x1="705.2" y1="1247.9" x2="707.3" y2="1247.9" gradientTransform="translate(-1002.4 1045.1) rotate(15) scale(1 -1)" xlink:href="#linear-gradient"/>
    <linearGradient id="linear-gradient-18" x1="706.8" y1="1247.9" x2="705.9" y2="1247.8" gradientTransform="translate(-1002.4 1045.1) rotate(15) scale(1 -1)" xlink:href="#linear-gradient-2"/>
    <linearGradient id="linear-gradient-19" x1="2005.7" y1="4767" x2="2007.8" y2="4767" gradientTransform="translate(2634.1 -4458.4) rotate(53.1)" gradientUnits="userSpaceOnUse">
      <stop offset="0" stop-color="#bbec6c"/>
      <stop offset="1" stop-color="#81b823"/>
    </linearGradient>
    <linearGradient id="linear-gradient-20" x1="2007.2" y1="4767" x2="2006.4" y2="4767" gradientTransform="translate(2634.1 -4458.4) rotate(53.1)" gradientUnits="userSpaceOnUse">
      <stop offset="0" stop-color="#78a91f" stop-opacity="0"/>
      <stop offset=".2" stop-color="#73a620" stop-opacity=".2"/>
      <stop offset=".4" stop-color="#659e24" stop-opacity=".4"/>
      <stop offset=".6" stop-color="#4e912b" stop-opacity=".6"/>
      <stop offset=".8" stop-color="#2d8034" stop-opacity=".8"/>
      <stop offset="1" stop-color="#036941" stop-opacity="1"/>
      <stop offset="1" stop-color="#026841"/>
    </linearGradient>
    <linearGradient id="linear-gradient-21" x1="8.3" y1="19.8" x2="11.8" y2="9.3" gradientTransform="translate(1.1 33.6) scale(1 -1)" xlink:href="#linear-gradient-19"/>
    <linearGradient id="linear-gradient-22" x1="-3774.6" y1="2281.4" x2="-3772.5" y2="2281.4" gradientTransform="translate(-3175.4 -3057.3) rotate(-105)" xlink:href="#linear-gradient-19"/>
    <linearGradient id="linear-gradient-23" x1="-3773" y1="2281.4" x2="-3773.9" y2="2281.3" gradientTransform="translate(-3175.4 -3057.3) rotate(-105)" xlink:href="#linear-gradient-20"/>
    <linearGradient id="linear-gradient-24" x1="10.8" y1="29.6" x2="15.8" y2="22.7" gradientTransform="translate(1.1 33.6) scale(1 -1)" xlink:href="#linear-gradient-19"/>
    <linearGradient id="linear-gradient-25" x1="13.8" y1="25.5" x2="10.6" y2="26.5" gradientTransform="translate(1.1 33.6) scale(1 -1)" xlink:href="#linear-gradient-2"/>
    <linearGradient id="linear-gradient-26" x1="14" y1="24.6" x2="12.5" y2="24.6" gradientTransform="translate(1.1 33.6) scale(1 -1)" xlink:href="#linear-gradient-2"/>
    <linearGradient id="linear-gradient-27" x1="2490.3" y1="4134.5" x2="2495.7" y2="4134.5" gradientTransform="translate(3370.5 -3487) rotate(75)" xlink:href="#linear-gradient-19"/>
    <linearGradient id="linear-gradient-28" x1="2490.3" y1="4134.5" x2="2495.7" y2="4134.5" gradientTransform="translate(3370.5 -3487) rotate(75)" xlink:href="#linear-gradient-19"/>
    <linearGradient id="linear-gradient-29" x1="2492.9" y1="4135.4" x2="2492.9" y2="4128.5" gradientTransform="translate(3370.5 -3487) rotate(75)" xlink:href="#linear-gradient-20"/>
    <linearGradient id="linear-gradient-30" x1="2492.9" y1="4137.4" x2="2492.9" y2="4130.3" gradientTransform="translate(3370.5 -3487) rotate(75)" xlink:href="#linear-gradient-20"/>
    <linearGradient id="linear-gradient-31" x1="2492.9" y1="4139.2" x2="2492.9" y2="4133.9" gradientTransform="translate(3370.5 -3487) rotate(75)" xlink:href="#linear-gradient-20"/>
    <linearGradient id="linear-gradient-32" x1="2494.2" y1="4134.6" x2="2492.2" y2="4134.4" gradientTransform="translate(3370.5 -3487) rotate(75)" xlink:href="#linear-gradient-20"/>
  </defs>
  <g>
    <path class="cls-4" d="M16.5,21.7c.4.7,1,1.1,1.7,1.3.2,0,.3,0,.4-.2.2-.7.2-1.4-.2-2.1s-1-1.1-1.7-1.3c-.2,0-.3,0-.4.2-.2.7-.2,1.4.2,2.1h0Z"/>
    <path class="cls-19" d="M18.6,22.8c.2-.7.2-1.4-.2-2.1s-1-1.1-1.7-1.3c0,0-.2,0-.2,0l2,3.5c0,0,.1,0,.1-.2h0Z"/>
  </g>
  <g>
    <path class="cls-21" d="M19.9,14.4c-.7,2.7-.2,5.5,1.2,7.7.3.5,1,.7,1.5.4,2.3-1.2,4.1-3.3,4.8-6.1s.2-5.5-1.2-7.7c-.3-.5-1-.7-1.5-.4-2.3,1.2-4.1,3.3-4.8,6.1h0Z"/>
    <path class="cls-32" d="M27.4,16.4c-.1.5-.3,1-.5,1.5l-.5.2c-2.4.9-4.1,2.5-4.6,4.4.5-2-.1-4.2-1.8-6.1l-.4-.4c0-.5.1-1.1.3-1.6.7-2.7,2.5-4.8,4.8-6.1.5-.3,1.2-.1,1.5.4,1.4,2.2,1.9,5,1.2,7.7h0Z"/>
    <path class="cls-9" d="M22.7,19c.5-2,2.2-3.6,4.6-4.4h.4c0-2.2-.4-4.1-1.5-5.8-.3-.5-1-.7-1.5-.4-1.7.9-3.2,2.3-4.1,4.1l.3.3c1.7,2,2.3,4.2,1.8,6.1Z"/>
    <path class="cls-6" d="M23.8,14.8c.4-1.6,1.6-3,3.4-3.9-.2-.7-.6-1.4-1-2.1-.3-.5-1-.7-1.5-.4-.7.4-1.3.8-1.9,1.3,1.1,1.7,1.4,3.5,1,5.1Z"/>
    <path class="cls-20" d="M22.5,22.5c2.3-1.2,4.1-3.3,4.8-6.1s.2-5.5-1.2-7.7c-.2-.3-.4-.4-.7-.5l-3.8,14.3c.3,0,.6,0,.8,0Z"/>
    <path class="cls-24" d="M19.9,14.4c-.7,2.7-.2,5.5,1.2,7.7.3.5,1,.7,1.5.4,2.3-1.2,4.1-3.3,4.8-6.1s.2-5.5-1.2-7.7c-.3-.5-1-.7-1.5-.4-2.3,1.2-4.1,3.3-4.8,6.1h0Z"/>
  </g>
  <g>
    <path class="cls-22" d="M12.7,9.4c0-1.1,1.1-2.2,3.6-2.2s3.7,1.4,5,1.4,2.3-2,2.3-3c0-2.8-5.3-3.2-7.3-3.2-4.6,0-9.3,2.1-9.3,7.6,0,8.5,11.6,7.8,11.6,12.2s-1.9,2.4-3.5,2.4c-3.4,0-4.5-2.7-6.2-2.7s-2.5,1.8-2.5,3.1c0,2.4,4,4.7,8.8,4.7s9.1-2.8,9.1-8.1c0-9.2-11.6-8.5-11.6-12.1h0Z"/>
    <g>
      <path class="cls-31" d="M15.1,28.3c-2,0-4-.5-5.5-1.3-1.2-.6-1.9-1.5-1.9-2.1s.7-1.7,1.1-1.7.7.4,1.2.7c1.1.8,2.6,2,5,2s4.9-1.5,4.9-3.7-.6-2.4-1.8-3.3c-.9-.7-2.1-1.2-3.3-1.8-1.6-.7-3.2-1.5-4.5-2.6-1.3-1.2-1.9-2.6-1.9-4.5s.8-3.6,2.4-4.7c1.4-1,3.4-1.5,5.6-1.5s2.4,0,4,.5c.7.2,1.2.4,1.6.7.3.3.4.5.4.7,0,.6-.4,1.7-.9,1.7s-.4-.1-.8-.3c-.8-.4-2-1.1-4.2-1.1-3.7,0-5,1.9-5,3.5s2.3,3.3,4.6,4.3c1.6.7,3.4,1.5,4.8,2.7,1.5,1.3,2.2,3,2.2,5.1s-.7,3.8-2.1,5c-1.4,1.2-3.3,1.8-5.7,1.8h0Z"/>
      <path class="cls-8" d="M8.3,9.9c0,1.8.6,3.3,1.9,4.5,1.2,1.1,2.9,1.9,4.5,2.6.3.1.6.3.9.4v-3.9c-2.2-1-4.3-2-4.3-4.2s1.1-3.3,4.3-3.5v-2.2c-1.9.1-3.7.6-4.9,1.5-1.6,1.1-2.4,2.7-2.4,4.7h0Z"/>
      <path class="cls-1" d="M15,25.9c-2.4,0-3.9-1.1-5-2-.5-.4-1-.7-1.2-.7-.4,0-1.1,1-1.1,1.7s.8,1.5,1.9,2.1c1.5.8,3.5,1.3,5.5,1.3s.3,0,.5,0v-2.4c-.2,0-.4,0-.6,0Z"/>
      <path class="cls-11" d="M21.9,4.9c-.3-.3-.9-.5-1.6-.7-1.6-.5-3.5-.5-4-.5-2.2,0-4.2.5-5.6,1.5-1.6,1.1-2.4,2.7-2.4,4.7s.6,3.3,1.9,4.5c.3.3.6.5.9.7h7.7c-.9-.5-1.9-1-2.9-1.4-2.4-1.1-4.6-2-4.6-4.3s1.3-3.5,5-3.5,3.3.6,4.2,1.1c.4.2.7.3.8.3.5,0,.9-1.1.9-1.7,0-.2,0-.4-.4-.7Z"/>
    </g>
    <path class="cls-18" d="M18.6,22.1c0,1.8-1.9,2.4-3.5,2.4-3.4,0-4.5-2.7-6.2-2.7s-2.5,1.8-2.5,3.1c0,2.4,4,4.7,8.8,4.7s9.1-2.8,9.1-8.1-.4-3-1-4.1h-10.7c3,1.5,6.1,2.4,6.1,4.7Z"/>
    <path class="cls-7" d="M13.2,10.5v7.2c2.8,1.3,5.4,2.3,5.4,4.4s-1.9,2.4-3.5,2.4-1.3-.1-1.9-.3v5.3c.6,0,1.3.1,2,.1,5.3,0,9.1-2.8,9.1-8.1,0-8.1-8.9-8.5-11.1-11h0Z"/>
  </g>
  <path class="cls-14" d="M16.4,12.4c-2.1-.9-3.7-1.7-3.7-3s1.1-2.2,3.6-2.2.3,0,.5,0c-.9-2.2-3.1-3.7-5.7-3.7s0,0,0,0c-2.4,1.1-4.1,3.2-4.1,6.5s.8,3.8,2,5.1c.7.2,1.4.4,2.1.4,2.3,0,4.2-1.2,5.3-2.9h0Z"/>
  <g>
    <g>
      <path class="cls-2" d="M6,18.3c-.2.7,0,1.5.3,2.1,0,.1.3.2.4.1.6-.3,1.1-.9,1.3-1.7s0-1.5-.3-2.1c0-.1-.3-.2-.4-.1-.6.3-1.1.9-1.3,1.7Z"/>
      <path class="cls-27" d="M6.7,20.5c.6-.3,1.1-.9,1.3-1.7s0-1.5-.3-2.1c0,0-.1-.1-.2-.1l-1,3.9c0,0,.2,0,.2,0Z"/>
    </g>
    <g>
      <path class="cls-3" d="M13.6,23.8c.6-.5,1.4-.6,2.1-.5.2,0,.3.2.3.3,0,.7-.4,1.4-1,1.8s-1.4.6-2.1.5c-.2,0-.3-.2-.3-.3,0-.7.4-1.4,1-1.8Z"/>
      <path class="cls-17" d="M15.9,23.6c0,.7-.4,1.4-1,1.8s-1.4.6-2.1.5c0,0-.1,0-.2-.1l3.2-2.4c0,0,0,.1,0,.2h0Z"/>
    </g>
    <path class="cls-5" d="M18.5,22.7c0,.4-.3.7-.5.9-.7.1-1.5.2-2.3.2s-.4,0-.7,0c-.2,0-.4,0-.7,0-1.1,0-2.2-.3-3.2-.6-.7-.2-1.3-.4-2-.7-.3-.1-.6-.3-.9-.5-.5-.2-.9-.5-1.4-.8-1.6-1.1-2.4-2.8-2.1-4.6.2-1.5,1.3-2.9,2.8-3.6.1.2.2.5.4.7-1.3.6-2.1,1.7-2.3,3-.2,1.5.4,2.9,1.8,3.8.6.4,1.2.8,1.9,1.1,1.8.9,3.8,1.3,5.8,1.4,1.2,0,2.3,0,3.5-.2h0Z"/>
  </g>
  <g>
    <g>
      <path class="cls-15" d="M18.5,10.1c-.7.2-1.5,0-2.1-.3-.1,0-.2-.3-.1-.4.3-.6.9-1.1,1.7-1.3s1.5,0,2.1.3c.1,0,.2.3.1.4-.3.6-.9,1.1-1.7,1.3Z"/>
      <path class="cls-12" d="M16.3,9.3c.3-.6.9-1.1,1.7-1.3s1.5,0,2.1.3c0,0,.1.1.1.2l-3.9,1c0,0,0-.2,0-.2Z"/>
    </g>
    <g>
      <path class="cls-25" d="M17.3,7.9c0,1.6-1,3-2.6,3.7-.3-.2-.6-.4-.9-.5h.1c1.6-.5,2.6-1.7,2.6-3.2s0-.3,0-.5c-.1-.9-.7-1.8-1.7-2.3-1.2-.7-2.7-.7-4-.1-.2,0-.4,0-.5-.1-.1-.2,0-.5.2-.6,1.5-.7,3.3-.7,4.7.1.5.3,1,.7,1.3,1.1.4.6.7,1.2.8,1.9,0,.1,0,.3,0,.5h0Z"/>
      <path class="cls-13" d="M17.3,7.9c0,1.6-1,3-2.6,3.7-.3-.2-.6-.4-.9-.5h.1c1.6-.5,2.6-1.7,2.6-3.2s0-.3,0-.5c-.1-.9-.7-1.8-1.7-2.3-1.2-.7-2.7-.7-4-.1-.2,0-.4,0-.5-.1-.1-.2,0-.5.2-.6,1.5-.7,3.3-.7,4.7.1.5.3,1,.7,1.3,1.1.4.6.7,1.2.8,1.9,0,.1,0,.3,0,.5h0Z"/>
      <path class="cls-26" d="M17.3,7.9c0,1.6-1,3-2.6,3.7-.3-.2-.6-.4-.9-.5h.1c1.6-.5,2.6-1.7,2.6-3.2s0-.3,0-.5c0-.5-.3-.9-.6-1.3h.9c.2.4.4.9.4,1.3,0,.1,0,.3,0,.5Z"/>
    </g>
    <g>
      <path class="cls-23" d="M8.4,3c1.9-.5,3.8-.2,5.3.8.3.2.5.7.3,1-.8,1.6-2.3,2.9-4.2,3.4-1.9.5-3.8.2-5.3-.8-.3-.2-.5-.7-.3-1,.8-1.6,2.3-2.9,4.2-3.4Z"/>
      <path class="cls-30" d="M8.4,3c1.9-.5,3.8-.2,5.3.8.3.2.5.7.3,1-.8,1.6-2.3,2.9-4.2,3.4-1.9.5-3.8.2-5.3-.8-.3-.2-.5-.7-.3-1,.8-1.6,2.3-2.9,4.2-3.4Z"/>
      <path class="cls-29" d="M9.8,8.2c.4,0,.7-.2,1.1-.4v-.4c.7-1.7,1.8-2.8,3.2-3.2-1.4.4-2.9,0-4.3-1.2l-.3-.2c-.4,0-.7.1-1.1.2-1.9.5-3.4,1.8-4.2,3.4-.2.4,0,.8.3,1,1.5,1,3.4,1.3,5.3.8h0Z"/>
      <path class="cls-28" d="M11.6,5c-1.4.4-2.5,1.5-3.1,3.2v.3c-1.5,0-2.9-.3-4-1-.3-.2-.5-.7-.3-1,.6-1.2,1.6-2.2,2.9-2.8l.2.2c1.4,1.2,2.9,1.6,4.3,1.2Z"/>
      <path class="cls-10" d="M8.7,5.7c-1.1.3-2.1,1.1-2.7,2.4-.5-.2-1-.4-1.4-.7-.3-.2-.5-.7-.3-1,.2-.5.6-.9.9-1.3,1.2.7,2.4,1,3.5.7Z"/>
      <path class="cls-16" d="M14,4.9c-.8,1.6-2.3,2.9-4.2,3.4-1.9.5-3.8.2-5.3-.8-.2-.1-.3-.3-.3-.5l9.9-2.7c0,.2,0,.4,0,.6Z"/>
    </g>
  </g>
</svg>